<svg xmlns="http://www.w3.org/2000/svg" viewBox="0 0 800 450">
  <defs>
    <linearGradient id="bg3" x1="0" y1="0" x2="1" y2="1">
      <stop offset="0%" stop-color="#1c1917"/>
      <stop offset="100%" stop-color="#292524"/>
    </linearGradient>
    <radialGradient id="glow3" cx="50%" cy="35%" r="60%">
      <stop offset="0%" stop-color="#f59e0b" stop-opacity="0.25"/>
      <stop offset="100%" stop-color="#f59e0b" stop-opacity="0"/>
    </radialGradient>
  </defs>
  <rect width="800" height="450" fill="url(#bg3)"/>
  <circle cx="400" cy="160" r="220" fill="url(#glow3)"/>
  <g stroke="#44403c" stroke-width="1">
    <line x1="0" y1="90" x2="800" y2="90"/>
    <line x1="0" y1="360" x2="800" y2="360"/>
    <line x1="120" y1="0" x2="120" y2="450"/>
    <line x1="680" y1="0" x2="680" y2="450"/>
  </g>
  <!-- accreditation badge / ribbon icon -->
  <g transform="translate(400,175)">
    <circle cx="0" cy="0" r="60" fill="#191716" stroke="#f59e0b" stroke-width="3"/>
    <path d="M0 -30 L9 -9 L32 -9 L14 5 L21 27 L0 14 L-21 27 L-14 5 L-32 -9 L-9 -9 Z" fill="#fbbf24"/>
    <path d="M-24 42 L-34 95 L0 72 L34 95 L24 42" fill="none" stroke="#f59e0b" stroke-width="3" stroke-linejoin="round"/>
  </g>
  <text x="400" y="330" text-anchor="middle" font-family="ui-monospace, monospace" font-size="20" fill="#fbbf24" letter-spacing="1">AKREDITASIKU</text>
</svg>
