<svg xmlns="http://www.w3.org/2000/svg" viewBox="0 0 800 450">
  <defs>
    <linearGradient id="bg4" x1="0" y1="0" x2="1" y2="1">
      <stop offset="0%" stop-color="#1c1917"/>
      <stop offset="100%" stop-color="#292524"/>
    </linearGradient>
    <radialGradient id="glow4" cx="50%" cy="35%" r="60%">
      <stop offset="0%" stop-color="#f59e0b" stop-opacity="0.25"/>
      <stop offset="100%" stop-color="#f59e0b" stop-opacity="0"/>
    </radialGradient>
  </defs>
  <rect width="800" height="450" fill="url(#bg4)"/>
  <circle cx="400" cy="160" r="220" fill="url(#glow4)"/>
  <g stroke="#44403c" stroke-width="1">
    <line x1="0" y1="90" x2="800" y2="90"/>
    <line x1="0" y1="360" x2="800" y2="360"/>
    <line x1="120" y1="0" x2="120" y2="450"/>
    <line x1="680" y1="0" x2="680" y2="450"/>
  </g>
  <!-- terminal / code icon -->
  <g transform="translate(300,140)">
    <rect x="0" y="0" width="200" height="140" rx="10" fill="#191716" stroke="#f59e0b" stroke-width="3"/>
    <rect x="0" y="0" width="200" height="26" rx="10" fill="#292524"/>
    <circle cx="18" cy="13" r="4" fill="#fbbf24"/>
    <circle cx="34" cy="13" r="4" fill="#f59e0b"/>
    <circle cx="50" cy="13" r="4" fill="#57534e"/>
    <path d="M22 60 L44 78 L22 96" fill="none" stroke="#fbbf24" stroke-width="4" stroke-linecap="round" stroke-linejoin="round"/>
    <line x1="58" y1="96" x2="110" y2="96" stroke="#f59e0b" stroke-width="4" stroke-linecap="round"/>
  </g>
  <text x="400" y="330" text-anchor="middle" font-family="ui-monospace, monospace" font-size="20" fill="#fbbf24" letter-spacing="1">DIGITAL BOOTCAMP</text>
</svg>
