<svg xmlns="http://www.w3.org/2000/svg" viewBox="0 0 800 450">
  <defs>
    <linearGradient id="bg5" x1="0" y1="0" x2="1" y2="1">
      <stop offset="0%" stop-color="#1c1917"/>
      <stop offset="100%" stop-color="#292524"/>
    </linearGradient>
    <radialGradient id="glow5" cx="50%" cy="35%" r="60%">
      <stop offset="0%" stop-color="#f59e0b" stop-opacity="0.25"/>
      <stop offset="100%" stop-color="#f59e0b" stop-opacity="0"/>
    </radialGradient>
  </defs>
  <rect width="800" height="450" fill="url(#bg5)"/>
  <circle cx="400" cy="160" r="220" fill="url(#glow5)"/>
  <g stroke="#44403c" stroke-width="1">
    <line x1="0" y1="90" x2="800" y2="90"/>
    <line x1="0" y1="360" x2="800" y2="360"/>
    <line x1="120" y1="0" x2="120" y2="450"/>
    <line x1="680" y1="0" x2="680" y2="450"/>
  </g>
  <!-- QR code icon -->
  <g transform="translate(330,105)">
    <rect x="0" y="0" width="140" height="140" rx="8" fill="#191716" stroke="#f59e0b" stroke-width="3"/>
    <g fill="#fbbf24">
      <rect x="14" y="14" width="30" height="30"/>
      <rect x="96" y="14" width="30" height="30"/>
      <rect x="14" y="96" width="30" height="30"/>
      <rect x="60" y="14" width="12" height="12"/>
      <rect x="60" y="36" width="12" height="12"/>
      <rect x="82" y="60" width="12" height="12"/>
      <rect x="60" y="82" width="12" height="12"/>
      <rect x="60" y="104" width="12" height="12"/>
      <rect x="104" y="82" width="12" height="12"/>
      <rect x="104" y="104" width="12" height="12"/>
    </g>
    <rect x="24" y="24" width="10" height="10" fill="#191716"/>
    <rect x="106" y="24" width="10" height="10" fill="#191716"/>
    <rect x="24" y="106" width="10" height="10" fill="#191716"/>
  </g>
  <text x="400" y="330" text-anchor="middle" font-family="ui-monospace, monospace" font-size="20" fill="#fbbf24" letter-spacing="1">ORIPAY · QRIS</text>
</svg>
